<svg t="1716966724569" class="icon" viewBox="0 0 1024 1024" version="1.1" xmlns="http://www.w3.org/2000/svg" p-id="2041"><path d="M684.31372 502.523299c-43.972632 43.954195-115.748506 43.437955-160.403313-1.161542s-45.078862-116.393806-1.124667-160.403313c37.187757-37.187757 184.611307-69.028736 229.173929-77.952322a8.739215 8.739215 0 0 1 10.306373 10.306373c-8.868275 44.617933-40.764566 192.041484-77.952322 229.210804z" fill="#612273" p-id="2042"></path><path d="M631.196255 501.933309c-29.333525 29.315088-77.25171 28.964782-106.935542-0.792798s-30.071012-77.675765-0.737486-106.935542 161.491106-53.689017 161.491105-53.689017-24.484552 132.083831-53.818077 161.417357z" fill="#541F66" p-id="2043"></path><path d="M580.770616 452.152971c-11.228232-11.523227-22.364278-3.687432-23.968311-2.0834s-8.610155 10.711991-0.84811 18.676846 14.307238 1.10623 14.307238 1.10623a7.024559 7.024559 0 1 0-9.790133-10.066691s-0.221246-1.714656 2.85776-4.498668 7.503925-1.640907 11.596975 2.562766 8.628592 20.538999-8.167663 37.077134c-15.376593 15.173785-39.234282 10.195751-50.444076 0.737486 0 0.645301-0.092186 1.290601-0.165934 1.843716a9.734822 9.734822 0 0 0 4.535541 9.900757c15.118473 8.499532 38.330861 7.153619 52.379979-6.508319 16.63032-16.003457 18.97184-37.224631 7.706734-48.747857z" fill="#FED150" p-id="2044"></path><path d="M574.171158 343.841119a6.95081 6.858624 45.01 1 0 9.701252-9.697867 6.95081 6.858624 45.01 1 0-9.701252 9.697867Z" fill="#FED150" p-id="2045"></path><path d="M641.190243 321.679649a6.95081 6.858624 45.01 1 0 9.701253-9.697866 6.95081 6.858624 45.01 1 0-9.701253 9.697866Z" fill="#FED150" p-id="2046"></path><path d="M592.563593 339.753136a10.822614 10.675117 45.01 1 0 15.09953-15.09426 10.822614 10.675117 45.01 1 0-15.09953 15.09426Z" fill="#FED150" p-id="2047"></path><path d="M618.016506 331.335582a10.822614 10.675117 45.01 1 0 15.09953-15.09426 10.822614 10.675117 45.01 1 0-15.09953 15.09426Z" fill="#FED150" p-id="2048"></path><path d="M680.276396 449.993399a6.95081 6.858624 45.01 1 0 9.701252-9.697866 6.95081 6.858624 45.01 1 0-9.701252 9.697866Z" fill="#FED150" p-id="2049"></path><path d="M702.467143 382.974406a6.95081 6.858624 45.01 1 0 9.701252-9.697867 6.95081 6.858624 45.01 1 0-9.701252 9.697867Z" fill="#FED150" p-id="2050"></path><path d="M684.370682 431.586667a10.822614 10.675117 45.01 1 0 15.09953-15.09426 10.822614 10.675117 45.01 1 0-15.09953 15.09426Z" fill="#FED150" p-id="2051"></path><path d="M692.805366 406.142751a10.822614 10.675117 45.01 1 0 15.09953-15.09426 10.822614 10.675117 45.01 1 0-15.09953 15.09426Z" fill="#FED150" p-id="2052"></path><path d="M636.082103 621.959237c-62.170112 0-112.558876-51.144689-112.466691-114.199784s50.407202-114.16291 112.577314-114.16291c52.582787 0 179.356716 81.731941 217.171336 106.935542a8.776089 8.776089 0 0 1 0 14.602233C815.438819 540.208858 688.646453 621.977674 636.082103 621.959237z" fill="#EB3D72" p-id="2053"></path><path d="M598.931221 583.978682c-41.483615 0-75.113-34.127188-75.113-76.219229s33.647821-76.200792 75.131437-76.182355 152.161901 76.219229 152.161901 76.219229-110.696723 76.182355-152.180338 76.182355z" fill="#D32A62" p-id="2054"></path><path d="M598.507166 513.161541c0.202809-16.077206-13.25632-18.437162-15.468779-18.437162s-13.661937 1.456536-13.809435 12.592582 9.329204 10.896363 9.329204 10.896363a7.024559 7.024559 0 1 0 0.202809-14.030681s1.050918-1.382787 5.19928-1.179978 6.471444 4.148362 6.379258 10.011379-8.425783 20.631185-31.988477 20.46525c-21.608354-0.165934-35.030609-20.538999-36.19215-35.159669-0.479366 0.424055-0.97717 0.848109-1.474973 1.23529a9.771696 9.771696 0 0 0-3.798055 10.214188c4.683039 16.704069 22.124595 32.154411 41.64955 32.430969 23.120202 0.350306 39.750522-12.942888 39.971768-29.038531z" fill="#FED150" p-id="2055"></path><path d="M670.393662 431.872092a6.95081 6.858624 90 1 0 13.717249 0 6.95081 6.858624 90 1 0-13.717249 0Z" fill="#FED150" p-id="2056"></path><path d="M733.448758 463.584012a6.95081 6.858624 90 1 0 13.717248 0 6.95081 6.858624 90 1 0-13.717248 0Z" fill="#FED150" p-id="2057"></path><path d="M686.286496 441.975657a10.822614 10.675117 90 1 0 21.350234 0 10.822614 10.675117 90 1 0-21.350234 0Z" fill="#FED150" p-id="2058"></path><path d="M710.254807 454.033561a10.822614 10.675117 90 1 0 21.350234 0 10.822614 10.675117 90 1 0-21.350234 0Z" fill="#FED150" p-id="2059"></path><path d="M670.356788 581.969031a6.95081 6.858624 90 1 0 13.717249 0 6.95081 6.858624 90 1 0-13.717249 0Z" fill="#FED150" p-id="2060"></path><path d="M733.43032 550.275549a6.95081 6.858624 90 1 0 13.717249 0 6.95081 6.858624 90 1 0-13.717249 0Z" fill="#FED150" p-id="2061"></path><path d="M686.268059 571.847029a10.822614 10.675117 90 1 0 21.350234 0 10.822614 10.675117 90 1 0-21.350234 0Z" fill="#FED150" p-id="2062"></path><path d="M710.23637 559.807562a10.822614 10.675117 90 1 0 21.350234 0 10.822614 10.675117 90 1 0-21.350234 0Z" fill="#FED150" p-id="2063"></path><path d="M510.709399 672.126755c-43.954195-43.972632-43.419517-115.748506 1.179978-160.403312s116.375369-45.097299 160.403313-1.124667c37.169319 37.187757 69.010299 184.611307 77.952323 229.155491a8.757652 8.757652 0 0 1-10.324811 10.324811C695.210083 741.173929 547.786532 709.314512 510.709399 672.126755z" fill="#32C4AA" p-id="2064"></path><path d="M511.225639 619.009291c-29.333525-29.351963-28.983219-77.25171 0.774361-106.935542s77.675765-30.089449 106.935542-0.737487 53.689017 161.491106 53.689017 161.491106-132.065394-24.484552-161.39892-53.818077z" fill="#2FAF96" p-id="2065"></path><path d="M560.987541 568.620526c11.523227-11.209795 3.687432-22.345841 2.083399-23.968311s-10.693554-8.610155-18.676846-0.84811-1.10623 14.307238-1.106229 14.307238a7.024559 7.024559 0 1 0 10.06669-9.790133s1.733093-0.239683 4.517105 2.839323 1.640907 7.503925-2.562766 11.596975-20.557436 8.647029-37.09557-8.149226c-15.173785-15.395031-10.195751-39.234282-0.737487-50.462513a16.464386 16.464386 0 0 1-1.843716-0.165935 9.771696 9.771696 0 0 0-9.900756 4.535542c-8.499532 15.13691-7.153619 38.349298 6.508318 52.379979 16.058768 16.593446 37.187757 18.953403 48.747858 7.725171z" fill="#FED150" p-id="2066"></path><path d="M669.24563 571.751126a6.858624 6.95081 45.01 1 0 9.831646-9.828214 6.858624 6.95081 45.01 1 0-9.831646 9.828214Z" fill="#FED150" p-id="2067"></path><path d="M691.406559 638.768908a6.858624 6.95081 45.01 1 0 9.831646-9.828214 6.858624 6.95081 45.01 1 0-9.831646 9.828214Z" fill="#FED150" p-id="2068"></path><path d="M673.293013 595.578698a10.675117 10.822614 45.01 1 0 15.308159-15.302817 10.675117 10.822614 45.01 1 0-15.308159 15.302817Z" fill="#FED150" p-id="2069"></path><path d="M681.711067 621.051255a10.675117 10.822614 45.01 1 0 15.308159-15.302817 10.675117 10.822614 45.01 1 0-15.308159 15.302817Z" fill="#FED150" p-id="2070"></path><path d="M563.087508 677.841986a6.858624 6.95081 45.01 1 0 9.831646-9.828214 6.858624 6.95081 45.01 1 0-9.831646 9.828214Z" fill="#FED150" p-id="2071"></path><path d="M630.098768 700.032768a6.858624 6.95081 45.01 1 0 9.831646-9.828214 6.858624 6.95081 45.01 1 0-9.831646 9.828214Z" fill="#FED150" p-id="2072"></path><path d="M581.441141 687.385747a10.675117 10.822614 45.01 1 0 15.308159-15.302817 10.675117 10.822614 45.01 1 0-15.308159 15.302817Z" fill="#FED150" p-id="2073"></path><path d="M606.916977 695.808739a10.675117 10.822614 45.01 1 0 15.308159-15.302817 10.675117 10.822614 45.01 1 0-15.308159 15.302817Z" fill="#FED150" p-id="2074"></path><path d="M400.657976 623.305149c0-62.170112 51.144689-112.558876 114.199784-112.46669s114.181347 50.407202 114.16291 112.577313c0 52.582787-81.731941 179.356716-106.935542 217.171336a8.776089 8.776089 0 0 1-14.602233 0c-25.14829-37.906806-106.824919-164.699172-106.824919-217.281959z" fill="#612273" p-id="2075"></path><path d="M438.656968 586.172704c0-41.483615 34.127188-75.113 76.200792-75.112999s76.200792 33.647821 76.200792 75.131437-76.237667 152.161901-76.237666 152.161901-76.182355-110.696723-76.163918-152.180339z" fill="#541F66" p-id="2076"></path><path d="M509.455672 585.74865c16.095643 0.202809 18.437162-13.25632 18.437162-15.46878s-1.474973-13.661937-12.592582-13.809434-10.9148 9.347641-10.9148 9.347641a7.024559 7.024559 0 1 0 14.030681 0.184372s1.401224 1.050918 1.179978 5.199279-4.148362 6.471444-10.011379 6.397696-20.631185-8.44422-20.446813-32.006914c0.147497-21.589917 20.520562-35.030609 35.141231-36.19215-0.424055-0.479366-0.829672-0.97717-1.23529-1.474973a9.771696 9.771696 0 0 0-10.214188-3.798055c-16.685632 4.683039-32.154411 22.124595-32.430968 41.64955-0.331869 23.120202 12.979762 39.750522 29.056968 39.971768z" fill="#FED150" p-id="2077"></path><path d="M583.812748 664.49377a6.95081 6.858624 0 1 0 13.90162 0 6.95081 6.858624 0 1 0-13.90162 0Z" fill="#FED150" p-id="2078"></path><path d="M552.082391 727.548866a6.95081 6.858624 0 1 0 13.901621 0 6.95081 6.858624 0 1 0-13.901621 0Z" fill="#FED150" p-id="2079"></path><path d="M569.818941 684.221534a10.822614 10.675117 0 1 0 21.645229 0 10.822614 10.675117 0 1 0-21.645229 0Z" fill="#FED150" p-id="2080"></path><path d="M557.761037 708.171408a10.822614 10.675117 0 1 0 21.645229 0 10.822614 10.675117 0 1 0-21.645229 0Z" fill="#FED150" p-id="2081"></path><path d="M433.715808 664.456896a6.95081 6.858624 0 1 0 13.901621 0 6.95081 6.858624 0 1 0-13.901621 0Z" fill="#FED150" p-id="2082"></path><path d="M465.409291 727.530429a6.95081 6.858624 0 1 0 13.90162 0 6.95081 6.858624 0 1 0-13.90162 0Z" fill="#FED150" p-id="2083"></path><path d="M439.947569 684.18466a10.822614 10.675117 0 1 0 21.645229 0 10.822614 10.675117 0 1 0-21.645229 0Z" fill="#FED150" p-id="2084"></path><path d="M451.987036 708.152971a10.822614 10.675117 0 1 0 21.645229 0 10.822614 10.675117 0 1 0-21.645229 0Z" fill="#FED150" p-id="2085"></path><path d="M350.306086 504.735758c43.972632-43.954195 115.748506-43.419517 160.403313 1.179978s45.078862 116.375369 1.124667 160.403313c-37.187757 37.169319-184.611307 69.010299-229.155492 77.952323a8.757652 8.757652 0 0 1-10.324811-10.324811c8.886712-44.617933 40.783003-192.041484 77.952323-229.210803z" fill="#EB3D72" p-id="2086"></path><path d="M403.441988 505.344184c29.351963-29.333525 77.25171-28.983219 106.935542 0.774361s30.089449 77.675765 0.737486 106.935542-161.491106 53.689017-161.491105 53.689017 24.484552-132.065394 53.818077-161.39892z" fill="#D32A62" p-id="2087"></path><path d="M453.830753 555.106086c11.209795 11.523227 22.345841 3.687432 23.968311 2.083399s8.610155-10.693554 0.848109-18.676845-14.307238-1.10623-14.307238-1.10623a7.024559 7.024559 0 1 0 9.790133 10.06669s0.239683 1.733093-2.85776 4.517105-7.503925 1.640907-11.596975-2.562765-8.628592-20.557436 8.167663-37.095571c15.376593-15.173785 39.234282-10.195751 50.444076-0.737487 0-0.645301 0-1.290601 0.165935-1.843716a9.734822 9.734822 0 0 0-4.535542-9.900756c-15.118473-8.499532-38.330861-7.153619-52.379979 6.508318-16.593446 16.058768-18.934966 37.224631-7.706733 48.747858z" fill="#FED150" p-id="2088"></path><path d="M450.775141 673.12722a6.95081 6.858624 45.01 1 0 9.701252-9.697867 6.95081 6.858624 45.01 1 0-9.701252 9.697867Z" fill="#FED150" p-id="2089"></path><path d="M383.757359 695.288149a6.95081 6.858624 45.01 1 0 9.701252-9.697866 6.95081 6.858624 45.01 1 0-9.701252 9.697866Z" fill="#FED150" p-id="2090"></path><path d="M426.96793 682.61232a10.822614 10.675117 45.01 1 0 15.09953-15.094261 10.822614 10.675117 45.01 1 0-15.09953 15.094261Z" fill="#FED150" p-id="2091"></path><path d="M401.514478 691.028571a10.822614 10.675117 45.01 1 0 15.09953-15.09426 10.822614 10.675117 45.01 1 0-15.09953 15.09426Z" fill="#FED150" p-id="2092"></path><path d="M344.66594 566.969058a6.95081 6.858624 45.01 1 0 9.701253-9.697867 6.95081 6.858624 45.01 1 0-9.701253 9.697867Z" fill="#FED150" p-id="2093"></path><path d="M322.460815 633.993893a6.95081 6.858624 45.01 1 0 9.701253-9.697867 6.95081 6.858624 45.01 1 0-9.701253 9.697867Z" fill="#FED150" p-id="2094"></path><path d="M335.160342 590.759145a10.822614 10.675117 45.01 1 0 15.09953-15.09426 10.822614 10.675117 45.01 1 0-15.09953 15.09426Z" fill="#FED150" p-id="2095"></path><path d="M326.736046 616.23552a10.822614 10.675117 45.01 1 0 15.09953-15.09426 10.822614 10.675117 45.01 1 0-15.09953 15.09426Z" fill="#FED150" p-id="2096"></path><path d="M403.571048 380.561469c62.151674 0 112.466691 51.144689 112.466691 114.199784s-50.425639 114.181347-112.577314 114.16291c-52.601224 0-179.356716-81.731941-217.171336-106.935542a8.776089 8.776089 0 0 1 0-14.602233c37.906806-25.14829 164.680735-106.824919 217.281959-106.824919z" fill="#32C4AA" p-id="2097"></path><path d="M440.648181 418.523587c41.483615 0 75.113 34.145625 75.094563 76.219229s-33.574073 76.219229-75.094563 76.219229-152.143464-76.237667-152.143464-76.237666S399.20144 418.523587 440.648181 418.523587z" fill="#2FAF96" p-id="2098"></path><path d="M441.127548 489.359165c-0.221246 16.095643 13.237883 18.437162 15.468779 18.437162s13.661937-1.474973 13.809435-12.592582-9.347641-10.9148-9.347642-10.9148a7.024559 7.024559 0 1 0-0.184371 14.03068s-1.050918 1.401224-5.19928 1.179979-6.471444-4.148362-6.397696-10.011379 8.425783-20.631185 32.006914-20.446813c21.589917 0.147497 34.938423 20.520562 36.19215 35.141231 0.479366-0.424055 0.958732-0.829672 1.474973-1.23529a9.771696 9.771696 0 0 0 3.798056-10.214188c-4.683039-16.685632-22.124595-32.154411-41.64955-32.430968-23.120202-0.331869-39.750522 12.979762-39.971768 29.056968z" fill="#FED150" p-id="2099"></path><path d="M355.523803 570.648614a6.95081 6.858624 90 1 0 13.717248 0 6.95081 6.858624 90 1 0-13.717248 0Z" fill="#FED150" p-id="2100"></path><path d="M292.468707 538.936694a6.95081 6.858624 90 1 0 13.717249 0 6.95081 6.858624 90 1 0-13.717249 0Z" fill="#FED150" p-id="2101"></path><path d="M331.979546 560.545049a10.822614 10.675117 90 1 0 21.350234 0 10.822614 10.675117 90 1 0-21.350234 0Z" fill="#FED150" p-id="2102"></path><path d="M308.029672 548.487144a10.822614 10.675117 90 1 0 21.350234 0 10.822614 10.675117 90 1 0-21.350234 0Z" fill="#FED150" p-id="2103"></path><path d="M355.54224 420.570112a6.95081 6.858624 90 1 0 13.717249 0 6.95081 6.858624 90 1 0-13.717249 0Z" fill="#FED150" p-id="2104"></path><path d="M292.468707 452.263594a6.95081 6.858624 90 1 0 13.717249 0 6.95081 6.858624 90 1 0-13.717249 0Z" fill="#FED150" p-id="2105"></path><path d="M331.997983 430.673677a10.822614 10.675117 90 1 0 21.350235 0 10.822614 10.675117 90 1 0-21.350235 0Z" fill="#FED150" p-id="2106"></path><path d="M308.048109 442.713144a10.822614 10.675117 90 1 0 21.350235 0 10.822614 10.675117 90 1 0-21.350235 0Z" fill="#FED150" p-id="2107"></path><path d="M515.83493 337.400072c43.954195 43.972632 43.419517 115.748506-1.179979 160.403313s-116.375369 45.097299-160.403313 1.124667C317.119193 461.592798 285.296651 314.169247 276.373064 269.625063a8.757652 8.757652 0 0 1 10.324811-10.324811c44.544184 8.942024 191.949298 40.838315 229.137055 78.09982z" fill="#612273" p-id="2108"></path><path d="M515.226503 390.443788c29.333525 29.351963 28.983219 77.25171-0.77436 106.935542s-77.675765 30.089449-106.935542 0.737487-53.689017-161.491106-53.689017-161.491106 132.065394 24.484552 161.398919 53.818077z" fill="#541F66" p-id="2109"></path><path d="M465.464602 440.832553c-11.523227 11.209795-3.687432 22.345841-2.083399 23.968311s10.693554 8.610155 18.658408 0.84811 1.10623-14.307238 1.10623-14.307238a7.024559 7.024559 0 1 0-10.048254 9.790133s-1.733093 0.239683-4.517104-2.839323-1.640907-7.522362 2.562765-11.596975 20.557436-8.647029 37.095571 8.149226c15.155347 15.395031 10.195751 39.234282 0.737486 50.462513a16.814692 16.814692 0 0 1 1.843717 0.165935 9.753259 9.753259 0 0 0 9.900756-4.55398c8.499532-15.118473 7.153619-38.330861-6.508319-52.379978-16.058768-16.575009-37.224631-18.953403-48.747857-7.706734z" fill="#FED150" p-id="2110"></path><path d="M347.369521 447.54307a6.858624 6.95081 45.01 1 0 9.831646-9.828214 6.858624 6.95081 45.01 1 0-9.831646 9.828214Z" fill="#FED150" p-id="2111"></path><path d="M325.208052 380.523984a6.858624 6.95081 45.01 1 0 9.831646-9.828214 6.858624 6.95081 45.01 1 0-9.831646 9.828214Z" fill="#FED150" p-id="2112"></path><path d="M337.849663 429.185374a10.675117 10.822614 45.01 1 0 15.308159-15.302816 10.675117 10.822614 45.01 1 0-15.308159 15.302816Z" fill="#FED150" p-id="2113"></path><path d="M329.427571 403.717543a10.675117 10.822614 45.01 1 0 15.308159-15.302816 10.675117 10.822614 45.01 1 0-15.308159 15.302816Z" fill="#FED150" p-id="2114"></path><path d="M453.52584 341.433106a6.858624 6.95081 45.01 1 0 9.831645-9.828214 6.858624 6.95081 45.01 1 0-9.831645 9.828214Z" fill="#FED150" p-id="2115"></path><path d="M386.534224 319.241824a6.858624 6.95081 45.01 1 0 9.831646-9.828214 6.858624 6.95081 45.01 1 0-9.831646 9.828214Z" fill="#FED150" p-id="2116"></path><path d="M429.696997 337.363407a10.675117 10.822614 45.01 1 0 15.308159-15.302816 10.675117 10.822614 45.01 1 0-15.308159 15.302816Z" fill="#FED150" p-id="2117"></path><path d="M404.239502 328.940455a10.675117 10.822614 45.01 1 0 15.308159-15.302816 10.675117 10.822614 45.01 1 0-15.308159 15.302816Z" fill="#FED150" p-id="2118"></path><path d="M635.270868 385.576377c0 62.170112-51.144689 112.558876-114.199784 112.466691s-114.181347-50.407202-114.16291-112.577314c0-52.582787 81.731941-179.338279 106.935542-217.152898a8.776089 8.776089 0 0 1 14.602233 0c25.14829 37.888369 106.824919 164.680735 106.824919 217.263521z" fill="#EB3D72" p-id="2119"></path><path d="M597.364062 422.708822c0 41.502053-34.127188 75.113-76.200792 75.113s-76.200792-33.647821-76.200793-75.131437 76.237667-152.161901 76.237667-152.161901S597.364062 381.225207 597.364062 422.708822z" fill="#D32A62" p-id="2120"></path><path d="M526.473172 423.151314c-16.095643-0.221246-18.437162 13.237883-18.437162 15.46878s1.474973 13.6435 12.592582 13.790997 10.9148-9.329204 10.9148-9.329204a7.024559 7.024559 0 1 0-14.03068-0.184372s-1.401224-1.069355-1.198416-5.217717 4.148362-6.453007 10.011379-6.379258 20.649622 8.425783 20.46525 31.988477c-0.147497 21.608354-20.538999 35.030609-35.159668 36.210587 0.442492 0.460929 0.848109 0.958732 1.253727 1.456536a9.716385 9.716385 0 0 0 10.195751 3.798055c16.704069-4.683039 32.172848-22.124595 32.449405-41.64955 0.331869-23.120202-12.979762-39.750522-29.056968-39.953331z" fill="#FED150" p-id="2121"></path><path d="M438.214476 344.406194a6.95081 6.858624 0 1 0 13.901621 0 6.95081 6.858624 0 1 0-13.901621 0Z" fill="#FED150" p-id="2122"></path><path d="M469.944833 281.332661a6.95081 6.858624 0 1 0 13.90162 0 6.95081 6.858624 0 1 0-13.90162 0Z" fill="#FED150" p-id="2123"></path><path d="M444.464674 324.67843a10.822614 10.675117 0 1 0 21.645229 0 10.822614 10.675117 0 1 0-21.645229 0Z" fill="#FED150" p-id="2124"></path><path d="M456.522578 300.710119a10.822614 10.675117 0 1 0 21.645229 0 10.822614 10.675117 0 1 0-21.645229 0Z" fill="#FED150" p-id="2125"></path><path d="M588.311415 344.424631a6.95081 6.858624 0 1 0 13.901621 0 6.95081 6.858624 0 1 0-13.901621 0Z" fill="#FED150" p-id="2126"></path><path d="M556.617933 281.351098a6.95081 6.858624 0 1 0 13.90162 0 6.95081 6.858624 0 1 0-13.90162 0Z" fill="#FED150" p-id="2127"></path><path d="M574.336046 324.696867a10.822614 10.675117 0 1 0 21.645229 0 10.822614 10.675117 0 1 0-21.645229 0Z" fill="#FED150" p-id="2128"></path><path d="M562.296579 300.728556a10.822614 10.675117 0 1 0 21.645229 0 10.822614 10.675117 0 1 0-21.645229 0Z" fill="#FED150" p-id="2129"></path></svg>
